<svg width="65" height="32" viewBox="0 0 65 32" fill="none" xmlns="http://www.w3.org/2000/svg">
<path d="M28.1807 10.4313L27.1611 13.4286H38.6377L37.6182 10.4313C37.4424 9.91696 36.9697 9.57143 36.4385 9.57143H29.3604C28.8291 9.57143 28.3564 9.91696 28.1807 10.4313ZM24.4463 13.6214L25.8213 9.58348C26.3486 8.03661 27.7666 7 29.3604 7H36.4385C38.0322 7 39.4502 8.03661 39.9775 9.58348L41.3525 13.6214C42.2588 14.0071 42.8994 14.9272 42.8994 16V21.7857V23.7143C42.8994 24.4254 42.3408 25 41.6494 25H40.3994C39.708 25 39.1494 24.4254 39.1494 23.7143V21.7857H26.6494V23.7143C26.6494 24.4254 26.0908 25 25.3994 25H24.1494C23.458 25 22.8994 24.4254 22.8994 23.7143V21.7857V16C22.8994 14.9272 23.54 14.0071 24.4463 13.6214ZM27.8994 17.2857C27.8994 16.9447 27.7677 16.6177 27.5333 16.3766C27.2989 16.1355 26.9809 16 26.6494 16C26.3179 16 26 16.1355 25.7655 16.3766C25.5311 16.6177 25.3994 16.9447 25.3994 17.2857C25.3994 17.6267 25.5311 17.9537 25.7655 18.1949C26 18.436 26.3179 18.5714 26.6494 18.5714C26.9809 18.5714 27.2989 18.436 27.5333 18.1949C27.7677 17.9537 27.8994 17.6267 27.8994 17.2857ZM39.1494 18.5714C39.4809 18.5714 39.7989 18.436 40.0333 18.1949C40.2677 17.9537 40.3994 17.6267 40.3994 17.2857C40.3994 16.9447 40.2677 16.6177 40.0333 16.3766C39.7989 16.1355 39.4809 16 39.1494 16C38.8179 16 38.5 16.1355 38.2655 16.3766C38.0311 16.6177 37.8994 16.9447 37.8994 17.2857C37.8994 17.6267 38.0311 17.9537 38.2655 18.1949C38.5 18.436 38.8179 18.5714 39.1494 18.5714Z" fill="#49454F"/>
</svg>
