<svg width="17" height="8" viewBox="0 0 17 8" fill="none" xmlns="http://www.w3.org/2000/svg">
<path d="M16.5098 3.79395L16.0801 4.77148C15.099 5.30859 13.6882 5.87077 11.8477 6.45801C9.39844 7.23861 7.31445 7.62891 5.5957 7.62891C2.13672 7.62891 0.407227 6.67643 0.407227 4.77148C0.407227 3.63997 1.04102 2.56217 2.30859 1.53809V2.6123C1.3418 3.30697 0.858398 3.84408 0.858398 4.22363C0.858398 4.66048 1.26302 5.09733 2.07227 5.53418C3.10352 6.09277 4.47852 6.37207 6.19727 6.37207C7.76562 6.37207 9.52734 6.12142 11.4824 5.62012C13.3014 5.14746 14.9772 4.53874 16.5098 3.79395ZM9.82812 1.57031C9.82812 2.10026 9.56673 2.36523 9.04395 2.36523C8.82194 2.36523 8.63216 2.29004 8.47461 2.13965C8.32422 1.9821 8.24902 1.79232 8.24902 1.57031C8.24902 1.04753 8.514 0.786133 9.04395 0.786133C9.25879 0.786133 9.44141 0.864909 9.5918 1.02246C9.74935 1.17285 9.82812 1.35547 9.82812 1.57031ZM7.61523 1.57031C7.61523 2.10026 7.35384 2.36523 6.83105 2.36523C6.60905 2.36523 6.41927 2.29004 6.26172 2.13965C6.11133 1.9821 6.03613 1.79232 6.03613 1.57031C6.03613 1.04753 6.30111 0.786133 6.83105 0.786133C7.0459 0.786133 7.22852 0.864909 7.37891 1.02246C7.53646 1.17285 7.61523 1.35547 7.61523 1.57031Z" fill="#4318FF"/>
</svg>
